<?xml version="1.0" standalone="no"?>
<!DOCTYPE svg PUBLIC "-//W3C//DTD SVG 20010904//EN"
 "http://www.w3.org/TR/2001/REC-SVG-20010904/DTD/svg10.dtd">
<svg version="1.0" xmlns="http://www.w3.org/2000/svg"
 width="1849.000000pt" height="660.000000pt" viewBox="0 0 1849.000000 660.000000"
 preserveAspectRatio="xMidYMid meet">

<g transform="translate(0.000000,660.000000) scale(0.100000,-0.100000)"
fill="#000000" stroke="none">
<path d="M2911 6588 c-40 -14 -32 -73 12 -82 12 -3 72 -7 132 -11 303 -16 632
-98 866 -216 214 -107 434 -295 568 -484 114 -162 215 -395 255 -587 40 -195
45 -449 12 -631 -17 -90 -14 -105 22 -114 19 -4 30 -1 42 15 28 34 45 189 45
402 -1 162 -5 215 -24 309 -164 827 -822 1341 -1789 1399 -67 4 -131 4 -141 0z"/>
<path d="M1093 5636 c-50 -63 -152 -374 -198 -601 -53 -264 -80 -599 -64 -794
38 -470 276 -1166 677 -1975 62 -126 109 -232 105 -236 -4 -4 -151 -141 -326
-304 l-318 -296 -32 24 c-178 136 -445 148 -646 29 -125 -75 -232 -221 -266
-365 -93 -394 247 -767 646 -708 102 14 164 38 251 97 110 73 199 198 233 330
19 73 19 223 0 296 -17 64 -55 146 -91 194 l-24 32 312 291 c226 211 315 288
321 278 4 -7 62 -114 128 -238 234 -437 502 -903 807 -1400 158 -258 179 -282
246 -282 74 0 67 -10 580 788 291 452 486 766 486 780 0 30 -32 49 -59 35 -10
-6 -236 -348 -501 -761 -404 -628 -487 -750 -505 -750 -19 0 -42 30 -123 163
-1036 1685 -1634 2952 -1789 3792 -25 136 -25 521 0 710 39 291 117 592 202
775 30 65 32 77 21 95 -20 30 -51 30 -73 1z m-395 -4181 c166 -39 302 -165
354 -328 84 -262 -82 -548 -354 -612 -113 -26 -212 -14 -328 42 -66 32 -165
129 -202 199 -149 278 2 616 312 698 71 19 140 19 218 1z"/>
<path d="M2754 5240 c-191 -50 -388 -206 -554 -439 -33 -46 -63 -95 -67 -109
-8 -33 8 -57 38 -57 18 0 37 20 89 95 36 52 108 138 160 191 285 290 558 326
831 109 82 -64 188 -185 264 -300 61 -92 91 -114 120 -90 27 23 16 56 -57 160
-78 114 -202 248 -289 316 -166 127 -355 171 -535 124z"/>
<path d="M2963 3679 c-105 -16 -249 -56 -350 -99 -134 -58 -153 -72 -153 -119
0 -77 31 -79 181 -7 63 30 125 57 138 61 24 7 24 7 19 -56 -3 -35 -35 -172
-71 -304 -90 -328 -93 -340 -73 -370 30 -46 106 -25 106 29 0 29 89 383 135
539 19 65 35 136 35 158 0 56 21 62 220 63 161 2 165 2 176 25 17 34 5 61 -32
77 -38 16 -229 17 -331 3z"/>
<path d="M3632 3684 c-25 -12 -42 -63 -42 -131 0 -67 -5 -87 -145 -624 -41
-155 -39 -189 13 -189 16 0 36 8 45 18 9 10 38 97 64 193 25 96 48 176 50 179
2 2 8 -2 13 -10 6 -10 30 -14 82 -15 67 0 79 -4 128 -35 61 -39 129 -125 171
-220 16 -35 37 -72 46 -82 37 -41 107 -6 107 54 0 80 -147 281 -247 338 l-50
28 69 35 c198 100 291 221 255 330 -30 91 -120 129 -303 127 -62 -1 -142 1
-178 4 -36 3 -71 3 -78 0z m414 -149 c16 -11 24 -25 24 -45 0 -61 -118 -147
-327 -239 l-110 -48 44 151 c25 83 49 159 54 168 6 10 27 19 57 23 26 4 52 8
57 11 24 10 179 -6 201 -21z"/>
<path d="M11033 3679 c-105 -16 -249 -56 -350 -99 -134 -58 -153 -72 -153
-119 0 -77 31 -79 181 -7 63 30 125 57 138 61 24 7 24 7 19 -56 -3 -35 -35
-172 -71 -304 -90 -328 -93 -340 -73 -370 30 -46 106 -25 106 29 0 29 89 383
135 539 19 65 35 136 35 158 0 56 21 62 220 63 161 2 165 2 176 25 17 34 5 61
-32 77 -38 16 -229 17 -331 3z"/>
<path d="M11702 3684 c-25 -12 -42 -63 -42 -131 0 -67 -5 -87 -145 -624 -41
-155 -39 -189 13 -189 16 0 36 8 45 18 9 10 38 97 64 193 25 96 48 176 50 179
2 2 8 -2 13 -10 6 -10 30 -14 82 -15 67 0 79 -4 128 -35 61 -39 129 -125 171
-220 16 -35 37 -72 46 -82 37 -41 107 -6 107 54 0 80 -147 281 -247 338 l-50
28 69 35 c198 100 291 221 255 330 -30 91 -120 129 -303 127 -62 -1 -142 1
-178 4 -36 3 -71 3 -78 0z m414 -149 c16 -11 24 -25 24 -45 0 -61 -118 -147
-327 -239 l-110 -48 44 151 c25 83 49 159 54 168 6 10 27 19 57 23 26 4 52 8
57 11 24 10 179 -6 201 -21z"/>
<path d="M8824 3652 c-69 -24 -124 -70 -158 -132 -26 -48 -28 -58 -23 -129 3
-42 8 -86 12 -97 6 -19 -2 -27 -67 -60 -92 -48 -189 -142 -206 -200 -29 -99
-1 -182 83 -246 62 -47 118 -62 203 -55 78 6 155 33 236 82 l57 34 52 -40 c88
-66 221 -101 255 -67 29 29 1 98 -40 98 -31 0 -106 32 -139 60 l-34 28 46 49
c88 92 139 162 139 193 0 35 -23 60 -55 60 -28 0 -31 -3 -84 -85 -22 -33 -58
-78 -81 -100 l-42 -40 -34 40 c-40 47 -128 175 -123 179 2 2 42 23 88 46 46
24 106 61 134 83 194 153 25 383 -219 299z m158 -109 c30 -27 23 -77 -16 -115
-40 -38 -171 -112 -185 -103 -5 3 -13 29 -16 59 -5 40 -3 62 9 88 32 68 162
113 208 71z m-239 -430 c20 -32 59 -87 87 -122 40 -49 49 -66 39 -73 -76 -50
-190 -83 -257 -73 -33 5 -55 16 -80 41 -32 32 -34 38 -30 88 3 38 12 65 30 88
24 31 140 108 164 108 6 0 27 -26 47 -57z"/>
<path d="M4995 3636 c-131 -61 -284 -245 -423 -506 -85 -159 -113 -291 -77
-360 32 -62 99 -27 110 57 11 93 26 150 55 211 l29 62 43 -6 c29 -4 79 3 153
21 143 34 225 45 225 31 -1 -29 -42 -165 -76 -251 -36 -91 -37 -99 -23 -123
20 -37 67 -41 95 -10 27 29 96 230 130 373 54 232 54 377 1 457 -47 69 -149
88 -242 44z m121 -114 c24 -15 34 -54 34 -124 0 -113 -1 -114 -77 -128 -110
-19 -229 -31 -268 -28 l-38 3 60 80 c112 150 235 234 289 197z"/>
<path d="M13065 3636 c-131 -61 -284 -245 -423 -506 -85 -159 -113 -291 -77
-360 32 -62 99 -27 110 57 11 93 26 150 55 211 l29 62 43 -6 c29 -4 79 3 153
21 143 34 225 45 225 31 -1 -29 -42 -165 -76 -251 -36 -91 -37 -99 -23 -123
20 -37 67 -41 95 -10 27 29 96 230 130 373 54 232 54 377 1 457 -47 69 -149
88 -242 44z m121 -114 c24 -15 34 -54 34 -124 0 -113 -1 -114 -77 -128 -110
-19 -229 -31 -268 -28 l-38 3 60 80 c112 150 235 234 289 197z"/>
<path d="M14424 3641 c-9 -10 -29 -52 -46 -92 -53 -132 -195 -412 -256 -504
-33 -49 -84 -117 -114 -149 l-54 -59 -21 22 c-12 13 -26 42 -32 66 -14 56 -14
278 0 460 11 154 7 197 -22 226 -23 23 -72 25 -89 4 -19 -22 -22 -583 -5 -687
29 -169 119 -256 208 -200 37 22 153 164 229 277 57 85 289 543 301 594 3 13
2 33 -4 43 -13 25 -74 24 -95 -1z"/>
<path d="M15923 3638 c-12 -13 -24 -43 -28 -68 -10 -71 -51 -217 -121 -433
-67 -206 -81 -268 -70 -310 9 -36 90 -87 137 -87 38 0 140 33 352 114 136 51
164 68 177 102 12 32 -4 74 -28 74 -10 0 -94 -31 -186 -70 -172 -72 -278 -105
-302 -96 -31 12 -12 98 96 438 39 120 72 235 76 256 13 84 -53 134 -103 80z"/>
<path d="M7206 3573 c-51 -79 -196 -241 -281 -314 -63 -53 -140 -97 -151 -86
-4 3 12 66 36 139 45 143 62 257 40 283 -16 19 -64 19 -83 1 -8 -8 -53 -172
-101 -363 -106 -429 -112 -513 -36 -513 41 0 59 33 66 116 3 38 10 97 15 131
l11 61 73 27 c80 29 94 28 185 -12 101 -44 167 -131 189 -248 6 -32 18 -67 28
-77 22 -25 65 -23 91 5 26 28 27 55 6 128 -38 130 -125 239 -235 294 -30 15
-55 28 -56 29 -1 1 60 65 135 141 165 168 204 222 192 266 -12 42 -28 59 -56
59 -19 0 -34 -15 -68 -67z"/>
<path d="M15215 3604 c-84 -20 -141 -30 -143 -24 -8 21 -34 40 -58 40 -53 0
-91 -72 -155 -293 -22 -78 -65 -218 -95 -311 -71 -219 -75 -246 -41 -280 23
-23 35 -26 90 -26 110 0 327 68 424 133 53 35 78 82 53 97 -29 19 -67 9 -178
-44 -119 -57 -243 -89 -264 -68 -8 8 -4 40 11 105 l22 94 42 13 c23 6 89 31
147 55 58 23 137 53 175 65 94 30 127 54 123 89 -5 41 -40 38 -243 -25 -102
-31 -188 -54 -190 -52 -6 6 47 163 68 205 29 55 69 78 189 112 63 17 154 38
203 47 99 17 135 34 135 64 0 51 -116 53 -315 4z"/>
<path d="M6075 3618 c-155 -55 -334 -237 -428 -435 -29 -62 -32 -77 -32 -164
0 -93 1 -98 35 -148 59 -85 79 -96 190 -96 73 0 111 6 165 24 180 60 272 143
219 195 -23 24 -46 20 -115 -22 -80 -49 -158 -78 -232 -87 -79 -10 -111 5
-133 61 -24 63 -13 140 32 234 49 99 206 260 303 308 35 18 70 32 77 32 8 0
25 -18 39 -40 38 -60 85 -53 85 13 0 35 -38 102 -69 120 -32 19 -90 21 -136 5z"/>
<path d="M5195 1529 c-125 -126 -231 -228 -236 -227 -4 2 -109 98 -234 213
-125 116 -234 214 -242 218 -39 23 -89 -27 -66 -66 12 -20 542 -507 552 -507
5 0 108 103 231 230 l222 230 61 -42 c250 -170 536 -151 756 48 43 38 54 77
29 102 -22 22 -48 13 -109 -38 -138 -115 -284 -154 -433 -115 -81 21 -182 76
-248 135 l-55 49 -228 -230z"/>
</g>
</svg>
